<svg xmlns="http://www.w3.org/2000/svg" viewBox="0 0 1180.0 700.0" width="1180.0" height="700.0" role="img" aria-label="6. ML C2 Pipeline"><defs><marker id="arr-0" markerWidth="10" markerHeight="10" refX="8" refY="3" orient="auto" markerUnits="strokeWidth"><path d="M0,0 L0,6 L9,3 z" fill="#64748B"/></marker><marker id="arr-1" markerWidth="10" markerHeight="10" refX="8" refY="3" orient="auto" markerUnits="strokeWidth"><path d="M0,0 L0,6 L9,3 z" fill="#64748B"/></marker><marker id="arr-2" markerWidth="10" markerHeight="10" refX="8" refY="3" orient="auto" markerUnits="strokeWidth"><path d="M0,0 L0,6 L9,3 z" fill="#64748B"/></marker><marker id="arr-3" markerWidth="10" markerHeight="10" refX="8" refY="3" orient="auto" markerUnits="strokeWidth"><path d="M0,0 L0,6 L9,3 z" fill="#64748B"/></marker><marker id="arr-4" markerWidth="10" markerHeight="10" refX="8" refY="3" orient="auto" markerUnits="strokeWidth"><path d="M0,0 L0,6 L9,3 z" fill="#7C3AED"/></marker><marker id="arr-5" markerWidth="10" markerHeight="10" refX="8" refY="3" orient="auto" markerUnits="strokeWidth"><path d="M0,0 L0,6 L9,3 z" fill="#059669"/></marker><marker id="arr-6" markerWidth="10" markerHeight="10" refX="8" refY="3" orient="auto" markerUnits="strokeWidth"><path d="M0,0 L0,6 L9,3 z" fill="#059669"/></marker><marker id="arr-7" markerWidth="10" markerHeight="10" refX="8" refY="3" orient="auto" markerUnits="strokeWidth"><path d="M0,0 L0,6 L9,3 z" fill="#0891B2"/></marker></defs><path d="M160.0,235.0 L200.0,235.0 L200.0,235.0" fill="none" stroke="#64748B" stroke-width="1.5"  marker-end="url(#arr-0)"/><path d="M330.0,235.0 L370.0,235.0 L370.0,235.0" fill="none" stroke="#64748B" stroke-width="1.5"  marker-end="url(#arr-1)"/><path d="M500.0,235.0 L540.0,235.0 L540.0,235.0" fill="none" stroke="#64748B" stroke-width="1.5"  marker-end="url(#arr-2)"/><path d="M680.0,235.0 L720.0,235.0 L720.0,235.0" fill="none" stroke="#64748B" stroke-width="1.5"  marker-end="url(#arr-3)"/><path d="M860.0,235.0 L900.0,235.0 L900.0,250.0" fill="none" stroke="#7C3AED" stroke-width="1.5"  marker-end="url(#arr-4)"/><path d="M900.0,250.0 L240.0,250.0 L240.0,450.0" fill="none" stroke="#059669" stroke-width="1.5"  marker-end="url(#arr-5)"/><path d="M240.0,450.0 L300.0,450.0 L300.0,450.0" fill="none" stroke="#059669" stroke-width="1.5"  marker-end="url(#arr-6)"/><path d="M500.0,450.0 L560.0,450.0 L560.0,450.0" fill="none" stroke="#0891B2" stroke-width="1.5"  marker-end="url(#arr-7)"/><rect x="70.0" y="230.0" width="120.0" height="70.0" rx="10" fill="#E8F1F6" stroke="#64748B" /><text x="130.0" y="258.8" text-anchor="middle" font-family="Fira Sans,sans-serif" font-size="11" fill="#164E63">1. Ingesta</text><text x="130.0" y="273.8" text-anchor="middle" font-family="Fira Sans,sans-serif" font-size="11" fill="#164E63">CSV (batch)</text><rect x="230.0" y="230.0" width="130.0" height="70.0" rx="10" fill="#E8F1F6" stroke="#64748B" /><text x="295.0" y="258.8" text-anchor="middle" font-family="Fira Sans,sans-serif" font-size="11" fill="#164E63">2. Limpieza y validación</text><text x="295.0" y="273.8" text-anchor="middle" font-family="Fira Sans,sans-serif" font-size="11" fill="#164E63">nulos · outliers · dedup</text><rect x="400.0" y="230.0" width="130.0" height="70.0" rx="10" fill="#FFC9C9" stroke="#DC2626" /><text x="465.0" y="258.8" text-anchor="middle" font-family="Fira Sans,sans-serif" font-size="11" fill="#164E63">3. Anonimización</text><text x="465.0" y="273.8" text-anchor="middle" font-family="Fira Sans,sans-serif" font-size="11" fill="#164E63">Ley 1581/2012</text><rect x="570.0" y="230.0" width="140.0" height="70.0" rx="10" fill="#E8F1F6" stroke="#64748B" /><text x="640.0" y="251.3" text-anchor="middle" font-family="Fira Sans,sans-serif" font-size="11" fill="#164E63">4. Feature engineering</text><text x="640.0" y="266.3" text-anchor="middle" font-family="Fira Sans,sans-serif" font-size="11" fill="#164E63">normalización · one-hot</text><text x="640.0" y="281.3" text-anchor="middle" font-family="Fira Sans,sans-serif" font-size="11" fill="#164E63">embeddings de texto</text><rect x="750.0" y="230.0" width="140.0" height="70.0" rx="10" fill="#FFF3BF" stroke="#F59E0B" /><text x="820.0" y="251.3" text-anchor="middle" font-family="Fira Sans,sans-serif" font-size="11" fill="#164E63">5. Split estratificado</text><text x="820.0" y="266.3" text-anchor="middle" font-family="Fira Sans,sans-serif" font-size="11" fill="#164E63">70 / 15 / 15 · semilla fija</text><text x="820.0" y="281.3" text-anchor="middle" font-family="Fira Sans,sans-serif" font-size="11" fill="#164E63">(sin leakage)</text><rect x="930.0" y="220.0" width="220.0" height="120.0" rx="10" fill="#D0BFFF" stroke="#7C3AED" /><text x="1040.0" y="251.3" text-anchor="middle" font-family="Fira Sans,sans-serif" font-size="11" fill="#164E63">6. Entrenamiento</text><text x="1040.0" y="266.3" text-anchor="middle" font-family="Fira Sans,sans-serif" font-size="11" fill="#164E63">Baselines: LR · RF · XGBoost</text><text x="1040.0" y="281.3" text-anchor="middle" font-family="Fira Sans,sans-serif" font-size="11" fill="#164E63">Texto: BERT clínico español</text><text x="1040.0" y="296.3" text-anchor="middle" font-family="Fira Sans,sans-serif" font-size="11" fill="#164E63">Fusión temprana + tardía</text><text x="1040.0" y="311.3" text-anchor="middle" font-family="Fira Sans,sans-serif" font-size="11" fill="#164E63">Optuna (hiperparámetros)</text><rect x="70.0" y="430.0" width="200.0" height="100.0" rx="10" fill="#B2F2BB" stroke="#059669" /><text x="170.0" y="458.8" text-anchor="middle" font-family="Fira Sans,sans-serif" font-size="11" fill="#164E63">7. Evaluación</text><text x="170.0" y="473.8" text-anchor="middle" font-family="Fira Sans,sans-serif" font-size="11" fill="#164E63">F1 · P · R · AUC por clase</text><text x="170.0" y="488.8" text-anchor="middle" font-family="Fira Sans,sans-serif" font-size="11" fill="#164E63">matriz 5×5 · McNemar</text><text x="170.0" y="503.8" text-anchor="middle" font-family="Fira Sans,sans-serif" font-size="11" fill="#164E63">recall I-II prioritario</text><rect x="330.0" y="430.0" width="200.0" height="100.0" rx="10" fill="#B2F2BB" stroke="#059669" /><text x="430.0" y="458.8" text-anchor="middle" font-family="Fira Sans,sans-serif" font-size="11" fill="#164E63">8. Registro y versionado</text><text x="430.0" y="473.8" text-anchor="middle" font-family="Fira Sans,sans-serif" font-size="11" fill="#164E63">MLflow (mlruns/)</text><text x="430.0" y="488.8" text-anchor="middle" font-family="Fira Sans,sans-serif" font-size="11" fill="#164E63">artifacts/models/vX</text><text x="430.0" y="503.8" text-anchor="middle" font-family="Fira Sans,sans-serif" font-size="11" fill="#164E63">convención data-v&lt;fecha&gt;</text><rect x="590.0" y="430.0" width="200.0" height="100.0" rx="10" fill="#A5D8FF" stroke="#0891B2" /><text x="690.0" y="466.3" text-anchor="middle" font-family="Fira Sans,sans-serif" font-size="11" fill="#164E63">9. Inferencia demo</text><text x="690.0" y="481.3" text-anchor="middle" font-family="Fira Sans,sans-serif" font-size="11" fill="#164E63">(en proceso, &lt; 3 s)</text><text x="690.0" y="496.3" text-anchor="middle" font-family="Fira Sans,sans-serif" font-size="11" fill="#164E63">umbrales por clase</text><rect x="280.0" y="630.0" width="700.0" height="40.0" rx="0" fill="#E8F1F6" stroke="none" /><text x="630.0" y="651.3" text-anchor="middle" font-family="Fira Sans,sans-serif" font-size="11" fill="#164E63" font-style="italic">Tracking transversal: MLflow registra parámetros · métricas · semillas · artefactos de cada corrida (reproducibilidad RT-005)</text><g><rect x="566.0" y="339.0" width="104" height="15" fill="#FFFFFF" fill-opacity="0.85"/><text x="570.0" y="350.0" text-anchor="middle" font-size="11" font-family="Fira Sans,sans-serif" fill="#059669">modelo candidato</text></g><g><rect x="266.0" y="439.0" width="128" height="15" fill="#FFFFFF" fill-opacity="0.85"/><text x="270.0" y="450.0" text-anchor="middle" font-size="11" font-family="Fira Sans,sans-serif" fill="#059669">artefacto + métricas</text></g><g><rect x="526.0" y="439.0" width="110" height="15" fill="#FFFFFF" fill-opacity="0.85"/><text x="530.0" y="450.0" text-anchor="middle" font-size="11" font-family="Fira Sans,sans-serif" fill="#0891B2">carga al arranque</text></g></svg>